<?xml version="1.0" standalone="no"?>
<!DOCTYPE svg PUBLIC "-//W3C//DTD SVG 20010904//EN"
 "http://www.w3.org/TR/2001/REC-SVG-20010904/DTD/svg10.dtd">
<svg version="1.0" xmlns="http://www.w3.org/2000/svg"
 width="800.000000pt" height="209.000000pt" viewBox="0 0 800.000000 209.000000"
 preserveAspectRatio="xMidYMid meet">
<metadata>
Created by potrace 1.13, written by Peter Selinger 2001-2015
</metadata>
<g transform="translate(0.000000,209.000000) scale(0.100000,-0.100000)"
fill="#000000" stroke="none">
<path d="M741 2070 c-493 -62 -732 -400 -733 -1035 -1 -257 30 -421 107 -582
140 -289 418 -433 837 -433 194 0 437 59 561 137 l37 23 0 498 c0 374 -3 501
-12 510 -9 9 -99 12 -344 12 -183 0 -339 -3 -348 -6 -14 -5 -16 -31 -16 -185
l0 -179 140 0 140 0 0 -199 0 -198 -52 -7 c-29 -3 -96 -6 -148 -6 -153 0 -242
33 -321 117 -98 104 -139 253 -139 504 -1 275 43 416 165 527 95 87 217 118
424 109 119 -5 233 -23 294 -46 15 -6 33 -8 41 -5 8 3 30 70 55 172 l42 166
-23 17 c-31 24 -134 55 -241 74 -111 19 -368 27 -466 15z"/>
<path d="M3505 1988 c-3 -7 -4 -443 -3 -968 l3 -955 210 0 210 0 5 415 5 415
313 3 312 2 0 -408 c0 -304 3 -411 12 -420 17 -17 399 -17 416 0 9 9 12 235
12 954 0 518 -3 949 -6 958 -5 14 -34 16 -214 16 -180 0 -209 -2 -214 -16 -3
-9 -6 -171 -6 -360 l0 -344 -315 0 -315 0 -2 358 -3 357 -208 3 c-160 2 -209
0 -212 -10z"/>
<path d="M6687 1993 c-4 -3 -7 -434 -7 -958 0 -726 3 -954 12 -963 15 -15 294
-17 303 -2 3 5 9 27 13 49 l7 39 61 -37 c166 -101 430 -127 606 -61 193 72
283 257 304 620 15 277 -42 496 -161 614 -91 92 -195 129 -360 129 -106 0
-184 -16 -286 -57 l-59 -24 0 313 c0 173 -3 320 -6 329 -5 14 -34 16 -213 16
-114 0 -211 -3 -214 -7z m753 -936 c89 -47 128 -175 117 -387 -12 -236 -59
-301 -216 -301 -87 0 -115 5 -183 34 l-48 19 0 303 0 303 58 20 c75 28 85 29
163 31 51 1 76 -4 109 -22z"/>
<path d="M1911 1947 c-92 -35 -155 -125 -155 -222 2 -247 341 -322 450 -99 52
106 14 234 -88 297 -55 34 -151 45 -207 24z"/>
<path d="M2567 1754 c-4 -4 -7 -91 -7 -194 l0 -187 -107 -24 -108 -24 0 -140
0 -140 108 -3 107 -3 0 -302 c0 -166 5 -331 11 -367 28 -175 131 -285 304
-325 79 -19 241 -21 326 -4 106 20 100 9 97 177 l-3 147 -110 5 c-121 6 -146
15 -175 63 -19 30 -20 52 -20 320 l0 287 149 0 c127 0 150 2 155 16 12 31 7
309 -6 322 -8 8 -57 12 -155 12 l-143 0 -2 183 -3 182 -206 3 c-113 1 -208 -1
-212 -4z"/>
<path d="M1792 1378 c-9 -9 -12 -168 -12 -655 0 -625 1 -643 19 -653 21 -11
368 -14 395 -4 14 6 16 73 16 659 0 586 -2 653 -16 659 -31 12 -389 7 -402 -6z"/>
<path d="M5214 1366 c-3 -7 -4 -240 -2 -517 4 -557 4 -556 71 -655 65 -98 162
-147 329 -166 165 -20 331 11 488 91 l59 30 8 -42 9 -42 144 0 145 0 0 655 0
655 -210 0 -210 0 -3 -473 -2 -473 -54 -25 c-97 -44 -211 -52 -277 -18 -58 29
-59 41 -59 516 0 238 -3 443 -6 456 -6 22 -7 22 -215 22 -167 0 -211 -3 -215
-14z"/>
</g>
</svg>
