<?xml version="1.0" standalone="no"?>
<!DOCTYPE svg PUBLIC "-//W3C//DTD SVG 20010904//EN"
 "http://www.w3.org/TR/2001/REC-SVG-20010904/DTD/svg10.dtd">
<svg version="1.0" xmlns="http://www.w3.org/2000/svg"
 width="560.000000pt" height="560.000000pt" viewBox="0 0 560.000000 560.000000"
 preserveAspectRatio="xMidYMid meet">
<metadata>
Created by potrace 1.13, written by Peter Selinger 2001-2015
</metadata>
<g transform="translate(0.000000,560.000000) scale(0.100000,-0.100000)"
fill="#000000" stroke="none">
<path d="M2571 4839 c-733 -82 -1361 -525 -1676 -1182 -488 -1019 -73 -2233
941 -2749 60 -31 154 -72 209 -93 116 -43 165 -43 202 0 22 25 23 33 23 242
l0 215 -27 -6 c-16 -4 -86 -9 -158 -12 -152 -7 -232 7 -328 59 -95 50 -147
110 -211 239 -61 126 -113 194 -190 251 -111 83 -131 118 -78 138 107 42 291
-57 387 -207 106 -165 229 -232 404 -221 108 7 211 40 211 68 0 39 43 145 81
201 45 66 57 56 -99 83 -497 85 -752 358 -803 858 -26 260 24 468 158 647 l48
65 -17 65 c-33 127 -16 355 34 465 12 27 14 27 78 22 119 -10 299 -82 454
-181 l52 -33 110 23 c276 58 562 58 838 0 l110 -23 52 33 c156 100 335 171
456 181 l66 6 28 -84 c37 -114 45 -299 17 -405 l-19 -71 49 -63 c164 -218 207
-519 122 -856 -95 -376 -368 -595 -817 -656 -49 -7 -88 -16 -88 -19 0 -4 11
-20 24 -36 39 -47 74 -125 90 -206 13 -61 16 -145 16 -416 0 -338 0 -340 23
-366 37 -43 86 -43 202 0 1143 427 1676 1745 1150 2842 -296 618 -865 1045
-1550 1164 -139 24 -440 33 -574 18z"/>
</g>
</svg>
